# xmcd CD database file
#
# Track frame offsets:
#	150
#	23906
#	49712
#	73027
#	92321
#	115488
#	138326
#	160295
#	183707
#	207970
#	225916
#	242981
#	263597
#
# Disc length: 3828 seconds
#
# Revision: 2
# Processed by: cddbd v1.5.2PL0 Copyright (c) Steve Scherf et al.
# Submitted via: CDex 1.70beta3
#
DISCID=ae0ef20d
DTITLE=秦基博 - ALL TIME BEST ハタモトヒロ disc2
DYEAR=2017
DGENRE=J-Pop
TTITLE0=エンドロール
TTITLE1=Dear Mr.Tomorrow
TTITLE2=初恋
TTITLE3=グッバイ・アイザック
TTITLE4=Girl
TTITLE5=言ノ葉
TTITLE6=ダイアローグ・モノローグ
TTITLE7=ひまわりの約束
TTITLE8=水彩の月
TTITLE9=Q and A
TTITLE10=スミレ
TTITLE11=終わりのない空
TTITLE12=70億のピース
EXTD=YEAR: 2017
EXTT0=
EXTT1=
EXTT2=
EXTT3=
EXTT4=
EXTT5=
EXTT6=
EXTT7=
EXTT8=
EXTT9=
EXTT10=
EXTT11=
EXTT12=
PLAYORDER=
